<svg width="176" height="48" viewBox="0 0 176 48" fill="none" xmlns="http://www.w3.org/2000/svg">
<path d="M51.2699 15.1527V32.7922H47.742V24.6371C47.742 22.7965 47.742 20.4446 47.7931 18.6039C47.3585 20.4446 46.7194 22.7965 46.157 24.6116L43.6772 32.7922H39.8425L37.3116 24.586C36.7748 22.7965 36.1357 20.4446 35.7266 18.6295C35.7778 20.4701 35.7778 22.7965 35.7778 24.6371V32.7922H32.2499V15.1527H37.8229L41.811 29.5455L45.7991 15.1527H51.2699ZM66.876 25.7109C66.876 26.0432 66.876 26.4522 66.8249 26.9124H57.1615C57.3916 29.7756 58.6698 30.6704 60.306 30.6704C61.8143 30.6704 62.9135 29.8267 63.1436 28.3696H66.6715C65.9813 31.5396 63.4248 33.1501 60.2293 33.1501C56.4968 33.1501 53.608 30.8238 53.608 26.0432C53.608 21.8762 56.3434 18.834 60.5105 18.834C64.6775 18.834 66.876 22.004 66.876 25.7109ZM60.3571 21.3137C58.721 21.3137 57.5705 22.3619 57.2638 24.6116H63.2459C63.0158 22.4642 62.0443 21.3137 60.3571 21.3137ZM82.5248 14.0023V32.7922H78.9968V30.6959L77.9743 32.2043C77.2073 32.7922 75.8268 33.1501 74.4464 33.1501C70.6372 33.1501 68.3876 30.2613 68.3876 26.2477C68.3876 21.3137 71.4042 18.834 74.9065 18.834C76.0314 18.834 77.4118 19.1152 78.1021 19.6009L78.9968 21.007V14.0023H82.5248ZM75.4689 30.6704C77.4118 30.6704 78.9968 29.4688 78.9968 26.1455V25.4808C78.9968 22.413 77.2329 21.3137 75.5968 21.3137C73.5516 21.3137 72.0433 22.8732 72.0433 26.0176C72.0433 28.8042 73.3726 30.6704 75.4689 30.6704ZM98.6696 19.1919L93.1988 33.3035C91.7671 36.9848 90.2844 38.1608 87.5234 38.1608C86.8843 38.1608 86.4497 38.1352 85.9384 38.0585V35.6299C86.2963 35.681 86.6287 35.681 86.9866 35.681C88.1881 35.681 88.9806 35.2209 89.543 33.8659L89.722 33.4314L84.1745 19.1919H88.1114L91.4859 30.108L94.8093 19.1919H98.6696ZM108.983 23.7935H116.09V32.7922H113.252L113.022 29.929L112.23 31.7185C111.233 32.69 109.878 33.1501 107.935 33.1501C103.027 33.1501 99.9332 29.6734 99.9332 24.0747C99.9332 18.2971 103.691 14.7948 108.625 14.7948C113.406 14.7948 115.886 17.4024 116.243 20.8792L116.269 21.1348H112.741L112.69 20.8792C112.255 18.7062 110.926 17.4279 108.574 17.4279C105.711 17.4279 103.666 19.8566 103.666 23.8702C103.666 28.2673 105.711 30.517 108.472 30.517C110.747 30.517 112.358 29.0342 112.715 26.5545H108.983V23.7935ZM131.437 25.7109C131.437 26.0432 131.437 26.4522 131.385 26.9124H121.722C121.952 29.7756 123.23 30.6704 124.866 30.6704C126.375 30.6704 127.474 29.8267 127.704 28.3696H131.232C130.542 31.5396 127.985 33.1501 124.79 33.1501C121.057 33.1501 118.169 30.8238 118.169 26.0432C118.169 21.8762 120.904 18.834 125.071 18.834C129.238 18.834 131.437 22.004 131.437 25.7109ZM124.918 21.3137C123.281 21.3137 122.131 22.3619 121.824 24.6116H127.806C127.576 22.4642 126.605 21.3137 124.918 21.3137ZM146.548 22.6431C146.625 23.3334 146.651 24.0236 146.651 25.1229V32.7922H143.123V25.6086C143.123 25.0462 143.123 24.4071 143.072 23.7168C142.969 22.2852 142.177 21.3137 140.464 21.3137C138.751 21.3137 137.396 22.7965 137.396 26.58V32.7922H133.868V19.1919H137.396V21.3904L138.444 19.7799C139.416 19.0896 140.413 18.834 141.717 18.834C144.605 18.834 146.267 20.2656 146.548 22.6431ZM162.094 25.7109C162.094 26.0432 162.094 26.4522 162.043 26.9124H152.38C152.61 29.7756 153.888 30.6704 155.524 30.6704C157.032 30.6704 158.132 29.8267 158.362 28.3696H161.89C161.199 31.5396 158.643 33.1501 155.447 33.1501C151.715 33.1501 148.826 30.8238 148.826 26.0432C148.826 21.8762 151.561 18.834 155.728 18.834C159.895 18.834 162.094 22.004 162.094 25.7109ZM155.575 21.3137C153.939 21.3137 152.789 22.3619 152.482 24.6116H158.464C158.234 22.4642 157.262 21.3137 155.575 21.3137ZM169.383 18.834C172.63 18.834 174.47 20.6491 174.777 23.1288H171.249C171.019 21.8762 170.329 21.1604 169.153 21.1604C168.105 21.1604 167.542 21.7739 167.542 22.6175C167.542 23.6401 168.386 24.177 170.636 24.7394C173.422 25.4552 175.058 26.58 175.058 29.0854C175.058 31.8208 172.579 33.1501 169.46 33.1501C166.162 33.1501 163.836 31.7185 163.452 28.6508H166.98C167.261 30.1335 168.284 30.8238 169.511 30.8238C170.636 30.8238 171.505 30.338 171.505 29.341C171.505 28.2929 170.61 27.7049 168.258 27.1169C165.727 26.4778 163.989 25.3785 163.989 23.0266C163.989 20.419 166.136 18.834 169.383 18.834Z" fill="#00B2FF"/>
<path d="M8.51106 25.1375C7.61106 23.3275 8.35106 21.1275 10.1611 20.2275C11.9711 19.3275 14.1711 20.0675 15.0711 21.8775L24.5911 41.0375C25.4911 42.8475 24.7511 45.0475 22.9411 45.9475C21.1311 46.8475 18.9311 46.1075 18.0311 44.2975L8.51106 25.1375Z" fill="#0CCA4A"/>
<path d="M16.0712 5.99748L15.0412 9.13748C14.9912 9.28748 15.0712 9.44748 15.2212 9.49748L21.4212 11.5375C21.5712 11.5875 21.7312 11.5075 21.7812 11.3575L22.8112 8.21748C23.4212 6.35748 22.4112 4.34748 20.5512 3.73748C18.6912 3.12748 16.6812 4.13748 16.0712 5.99748Z" fill="#0CCA4A"/>
<path d="M13.3408 14.2375L14.3708 11.0975C14.4208 10.9475 14.5808 10.8675 14.7308 10.9175L20.9308 12.9575C21.0808 13.0075 21.1608 13.1675 21.1108 13.3175L20.0808 16.4575C19.4708 18.3175 17.4608 19.3375 15.6008 18.7175C13.7408 18.1075 12.7208 16.0975 13.3408 14.2375Z" fill="#0CCA4A"/>
<path d="M3.65124 47.1076C1.65124 47.1076 0.0312381 45.4776 0.0412381 43.4776C0.0412381 43.1376 0.0912381 42.8176 0.171238 42.4976L5.25124 24.4876C5.41124 23.8976 5.41124 23.2776 5.25124 22.6776L0.161238 4.66756C-0.428762 2.75756 0.651238 0.727556 2.57124 0.157556C4.49124 -0.422444 6.51124 0.647556 7.09124 2.56756C7.11124 2.61756 7.12124 2.66756 7.13124 2.70756L12.6112 22.0576C12.8912 23.0476 12.8912 24.0976 12.6112 25.0876L7.14124 44.4476C6.70124 46.0076 5.28124 47.0876 3.66124 47.0876L3.65124 47.1076Z" fill="#00B2FF"/>
</svg>
